<?xml version="1.0" encoding="iso-8859-1"?>
<!-- Generator: Adobe Illustrator 19.0.0, SVG Export Plug-In . SVG Version: 6.00 Build 0)  -->
<svg version="1.1" id="Layer_1" xmlns="http://www.w3.org/2000/svg" xmlns:xlink="http://www.w3.org/1999/xlink" x="0px" y="0px"
	 viewBox="0 0 504.123 504.123" style="enable-background:new 0 0 504.123 504.123;" xml:space="preserve">
<circle style="fill:#ED9200;" cx="252.062" cy="252.062" r="252.062"/>
<path style="fill:#EA6F00;" d="M73.83,73.823c98.43-98.43,258.032-98.43,356.462,0c98.43,98.438,98.446,258.032,0,356.478"/>
<path style="fill:#1D2321;" d="M346.648,365.19c13.123-6.971,25.435-15.919,36.462-26.955l-50.137-50.121
	c-11.674,11.674-26.033,19.078-41.11,22.292L346.648,365.19z"/>
<path style="fill:#363D3B;" d="M270.604,312.115c-19.858-0.929-39.463-8.869-54.587-24.001
	c-15.139-15.139-23.079-34.737-24.001-54.603l-60.306-60.298c-21.709,55.194-10.366,120.485,34.17,165.022
	c44.552,44.536,109.844,55.895,165.029,34.186L270.604,312.115z"/>
<path style="fill:#1D2321;" d="M165.88,338.235c44.552,44.536,109.844,55.895,165.029,34.186l-60.306-60.306
	c-19.858-0.929-39.463-8.869-54.587-24.001c-15.139-15.139-23.079-34.737-24.001-54.603"/>
<path style="fill:#363D3B;" d="M138.925,157.468l54.8,54.784c3.214-15.061,10.618-29.412,22.292-41.11l-50.137-50.121
	C154.86,132.049,145.888,144.36,138.925,157.468z"/>
<circle style="fill:#EA6F00;" cx="331.366" cy="405.008" r="11.154"/>
<g>
</g>
<g>
</g>
<g>
</g>
<g>
</g>
<g>
</g>
<g>
</g>
<g>
</g>
<g>
</g>
<g>
</g>
<g>
</g>
<g>
</g>
<g>
</g>
<g>
</g>
<g>
</g>
<g>
</g>
</svg>
