<?xml version="1.0" encoding="iso-8859-1"?>
<!-- Generator: Adobe Illustrator 19.0.0, SVG Export Plug-In . SVG Version: 6.00 Build 0)  -->
<svg version="1.1" id="Layer_1" xmlns="http://www.w3.org/2000/svg" xmlns:xlink="http://www.w3.org/1999/xlink" x="0px" y="0px"
	 viewBox="0 0 512 512" style="enable-background:new 0 0 512 512;" xml:space="preserve">
<g>
	<path style="fill:#211E48;" d="M452.751,490.504H288.078c-7.611,0-13.783-6.171-13.783-13.783c0-7.612,6.172-13.783,13.783-13.783
		h164.675c6.985,0,12.669-5.684,12.669-12.67V91.488c0-6.986-5.684-12.67-12.669-12.67H59.249c-6.985,0-12.669,5.684-12.669,12.67
		v358.78c0,6.986,5.684,12.67,12.669,12.67h138.992c7.611,0,13.783,6.171,13.783,13.783c0,7.612-6.172,13.783-13.783,13.783H59.249
		c-22.186,0-40.235-18.05-40.235-40.236V91.488c0-22.186,18.05-40.236,40.235-40.236h393.503c22.186,0,40.235,18.05,40.235,40.236
		v358.78C492.987,472.455,474.938,490.504,452.751,490.504z"/>
	<path style="fill:#211E48;" d="M327.743,333.851h-44.64c-7.611,0-13.783-6.171-13.783-13.783c0-7.612,6.172-13.783,13.783-13.783
		h44.64c7.611,0,13.783,6.171,13.783,13.783C341.526,327.681,335.354,333.851,327.743,333.851z"/>
	<path style="fill:#211E48;" d="M424.465,333.851h-44.641c-7.611,0-13.783-6.171-13.783-13.783c0-7.612,6.172-13.783,13.783-13.783
		h44.641c7.611,0,13.783,6.171,13.783,13.783C438.248,327.681,432.076,333.851,424.465,333.851z"/>
	<path style="fill:#211E48;" d="M327.743,256.558h-44.64c-7.611,0-13.783-6.171-13.783-13.783c0-7.612,6.172-13.783,13.783-13.783
		h44.64c7.611,0,13.783,6.171,13.783,13.783C341.526,250.387,335.354,256.558,327.743,256.558z"/>
	<path style="fill:#211E48;" d="M424.465,256.558h-44.641c-7.611,0-13.783-6.171-13.783-13.783c0-7.612,6.172-13.783,13.783-13.783
		h44.641c7.611,0,13.783,6.171,13.783,13.783C438.248,250.387,432.076,256.558,424.465,256.558z"/>
	<path style="fill:#211E48;" d="M327.743,411.145h-44.64c-7.611,0-13.783-6.171-13.783-13.783c0-7.612,6.172-13.783,13.783-13.783
		h44.64c7.611,0,13.783,6.171,13.783,13.783C341.526,404.974,335.354,411.145,327.743,411.145z"/>
	<path style="fill:#211E48;" d="M424.465,411.145h-44.641c-7.611,0-13.783-6.171-13.783-13.783c0-7.612,6.172-13.783,13.783-13.783
		h44.641c7.611,0,13.783,6.171,13.783,13.783C438.248,404.974,432.076,411.145,424.465,411.145z"/>
</g>
<path style="fill:#B0DACC;" d="M184.185,498.216h-56.213c-16.892,0-30.587-13.695-30.587-30.587V44.369
	c0-16.892,13.695-30.587,30.587-30.587h56.213c16.892,0,30.587,13.695,30.587,30.587v423.26
	C214.772,484.523,201.077,498.216,184.185,498.216z"/>
<path style="fill:#211E48;" d="M184.185,512h-56.212c-24.466,0-44.369-19.904-44.369-44.369V44.369
	C83.603,19.904,103.508,0,127.973,0h56.212c24.466,0,44.369,19.904,44.369,44.369v423.26C228.554,492.095,208.651,512,184.185,512z
	 M127.973,27.565c-9.266,0-16.804,7.538-16.804,16.804v423.26c0,9.266,7.539,16.804,16.804,16.804h56.212
	c9.266,0,16.804-7.538,16.804-16.804V44.369c0-9.266-7.539-16.804-16.804-16.804H127.973z"/>
<path style="fill:#B0DACC;" d="M390.382,180.222h-73.196c-14.458,0-26.178-11.721-26.178-26.178l0,0
	c0-14.458,11.721-26.178,26.178-26.178h73.196c14.458,0,26.178,11.721,26.178,26.178l0,0
	C416.561,168.502,404.84,180.222,390.382,180.222z"/>
<path style="fill:#211E48;" d="M390.382,194.005h-73.195c-22.034,0-39.96-17.926-39.96-39.96s17.926-39.96,39.96-39.96h73.195
	c22.034,0,39.96,17.926,39.96,39.96S412.418,194.005,390.382,194.005z M317.187,141.649c-6.835,0-12.395,5.56-12.395,12.395
	c0,6.835,5.56,12.395,12.395,12.395h73.195c6.835,0,12.395-5.56,12.395-12.395c0-6.835-5.56-12.395-12.395-12.395L317.187,141.649
	L317.187,141.649z"/>
<g>
</g>
<g>
</g>
<g>
</g>
<g>
</g>
<g>
</g>
<g>
</g>
<g>
</g>
<g>
</g>
<g>
</g>
<g>
</g>
<g>
</g>
<g>
</g>
<g>
</g>
<g>
</g>
<g>
</g>
</svg>
